Call Me Fitz s02e02 "Fucking Memories"

This episode was shown on HBO Canada on 25 September 2011 immediately after the season premiere. This is a rerip from the repeat on 2 October due to a video glitch at 18.15 and the presence of warppoints in the initial release. 

A giant penis defaces the Fitzpatrick Motors mural, and the penis is pointed straight at Fitz' mouth. The caption says "I love cock!" with Larry saying "Me too!". Fitz is now determined to broadcast his heterosexuality far and loud. There's only two questions. How? And, who is trying to kill him?


General
Complete name                    : Call.Me.Fitz.s02e02.RERiP.WS.XviD-jAh.avi
Format                           : AVI
Format/Info                      : Audio Video Interleave
File size                        : 233 MiB
Duration                         : 25mn 59s
Overall bit rate mode            : Variable
Overall bit rate                 : 1 254 Kbps
Writing application              : VirtualDubMod 1.5.4.1 (build 2178/release)
Writing library                  : VirtualDubMod build 2178/release

Video
ID                               : 0
Format                           : MPEG-4 Visual
Format profile                   : Simple@L3
Format settings, BVOP            : No
Format settings, QPel            : No
Format settings, GMC             : No warppoints
Format settings, Matrix          : Default (H.263)
Codec ID                         : XVID
Codec ID/Hint                    : XviD
Duration                         : 25mn 59s
Bit rate                         : 1 131 Kbps
Width                            : 624 pixels
Height                           : 352 pixels
Display aspect ratio             : 16:9
Frame rate                       : 23.976 fps
Color space                      : YUV
Chroma subsampling               : 4:2:0
Bit depth                        : 8 bits
Scan type                        : Progressive
Compression mode                 : Lossy
Bits/(Pixel*Frame)               : 0.215
Stream size                      : 210 MiB (90%)
Writing library                  : XviD 1.2.1 (UTC 2008-12-04)

Audio
ID                               : 1
Format                           : MPEG Audio
Format version                   : Version 1
Format profile                   : Layer 3
Mode                             : Joint stereo
Mode extension                   : MS Stereo
Codec ID                         : 55
Codec ID/Hint                    : MP3
Duration                         : 25mn 59s
Bit rate mode                    : Variable
Bit rate                         : 110 Kbps
Nominal bit rate                 : 128 Kbps
Channel(s)                       : 2 channels
Sampling rate                    : 48.0 KHz
Compression mode                 : Lossy
Stream size                      : 20.5 MiB (9%)
Alignment                        : Aligned on interleaves
Interleave, duration             : 24 ms (0.58 video frame)
Interleave, preload duration     : 537 ms
Writing library                  : LAME3.98r
Encoding settings                : -m j -V 4 -q 2 -lowpass 17 --abr 128
